<svg width="100" height="22" viewBox="0 0 100 22" fill="none" xmlns="http://www.w3.org/2000/svg">
<path d="M0 0H99.4438V21.2197H0V0Z" stroke="#E5E7EB"/>
<g clip-path="url(#clip0_44_777)">
<g clip-path="url(#clip1_44_777)">
<path d="M14.778 1.51562C14.2096 1.51562 10.2309 2.6524 10.2309 7.76787V11.7466C10.2309 13.0006 11.2505 14.0201 12.5045 14.0201H13.6412V18.5672C13.6412 19.196 14.1492 19.704 14.778 19.704C15.4068 19.704 15.9148 19.196 15.9148 18.5672V14.0201V10.0414V2.6524C15.9148 2.02362 15.4068 1.51562 14.778 1.51562ZM2.27351 2.08401C2.27351 1.79271 2.05682 1.55115 1.76552 1.51918C1.47422 1.48721 1.21489 1.67904 1.15095 1.95968L0.0745701 6.80161C0.0248364 7.02541 -3.05176e-05 7.25277 -3.05176e-05 7.48012C-3.05176e-05 9.11068 1.24687 10.4499 2.8419 10.5956V18.5672C2.8419 19.196 3.34989 19.704 3.97867 19.704C4.60745 19.704 5.11544 19.196 5.11544 18.5672V10.5956C6.71047 10.4499 7.95737 9.11068 7.95737 7.48012C7.95737 7.25277 7.9325 7.02541 7.88277 6.80161L6.80639 1.95968C6.74244 1.67548 6.47601 1.48721 6.18827 1.51918C5.90052 1.55115 5.68383 1.79271 5.68383 2.08401V6.85135C5.68383 7.04318 5.52752 7.19948 5.33569 7.19948C5.15452 7.19948 5.00532 7.06094 4.98755 6.87976L4.5435 2.03428C4.51864 1.73943 4.27352 1.51562 3.97867 1.51562C3.68382 1.51562 3.4387 1.73943 3.41384 2.03428L2.97334 6.87976C2.95557 7.06094 2.80637 7.19948 2.6252 7.19948C2.43337 7.19948 2.27706 7.04318 2.27706 6.85135V2.08401H2.27351ZM3.98933 7.48367H3.97867H3.96801L3.97867 7.45881L3.98933 7.48367Z" fill="#F97316"/>
</g>
</g>
<path d="M23.2356 14.5156V3.90576H28.4192C29.7531 3.90576 30.7534 4.15837 31.4203 4.66361C32.0973 5.16884 32.4358 5.83574 32.4358 6.66432C32.4358 7.22008 32.2994 7.7051 32.0266 8.11939C31.7538 8.52358 31.3799 8.83682 30.905 9.05912C30.4301 9.28142 29.8844 9.39258 29.268 9.39258L29.556 8.77114C30.2229 8.77114 30.814 8.88229 31.3294 9.10459C31.8447 9.31679 32.2438 9.63509 32.5268 10.0595C32.8198 10.4839 32.9663 11.0043 32.9663 11.6206C32.9663 12.5301 32.6076 13.2424 31.8902 13.7578C31.1728 14.263 30.1168 14.5156 28.7224 14.5156H23.2356ZM25.6758 12.6665H28.5405C29.1771 12.6665 29.6571 12.5654 29.9804 12.3633C30.3139 12.1511 30.4806 11.8177 30.4806 11.363C30.4806 10.9184 30.3139 10.59 29.9804 10.3778C29.6571 10.1555 29.1771 10.0443 28.5405 10.0443H25.494V8.2558H28.1161C28.7123 8.2558 29.167 8.15476 29.4802 7.95266C29.8036 7.74047 29.9653 7.42217 29.9653 6.99778C29.9653 6.58349 29.8036 6.2753 29.4802 6.0732C29.167 5.86101 28.7123 5.75491 28.1161 5.75491H25.6758V12.6665ZM34.6586 14.5156V6.36118H37.0231V14.5156H34.6586ZM35.8408 5.22441C35.4063 5.22441 35.0527 5.09811 34.7798 4.84549C34.507 4.59287 34.3706 4.27963 34.3706 3.90576C34.3706 3.53189 34.507 3.21864 34.7798 2.96603C35.0527 2.71341 35.4063 2.5871 35.8408 2.5871C36.2753 2.5871 36.629 2.70836 36.9018 2.95087C37.1746 3.18328 37.311 3.48642 37.311 3.86029C37.311 4.25437 37.1746 4.58277 36.9018 4.84549C36.6391 5.09811 36.2854 5.22441 35.8408 5.22441ZM42.552 14.6369C41.5921 14.6369 40.8444 14.3944 40.3088 13.9093C39.7733 13.4142 39.5055 12.6816 39.5055 11.7116V4.55751H41.87V11.6813C41.87 12.0248 41.9609 12.2926 42.1428 12.4846C42.3247 12.6665 42.5722 12.7574 42.8855 12.7574C43.2594 12.7574 43.5777 12.6564 43.8404 12.4543L44.477 14.1215C44.2345 14.2933 43.9414 14.4247 43.5979 14.5156C43.2644 14.5965 42.9158 14.6369 42.552 14.6369ZM38.2475 8.3619V6.54307H43.901V8.3619H38.2475ZM49.5995 14.6369C48.6699 14.6369 47.8514 14.455 47.1441 14.0912C46.4469 13.7275 45.9063 13.2323 45.5223 12.6058C45.1383 11.9693 44.9464 11.2468 44.9464 10.4384C44.9464 9.61993 45.1333 8.89745 45.5072 8.27096C45.8911 7.63437 46.4115 7.13924 47.0683 6.78558C47.7251 6.42181 48.4678 6.23993 49.2964 6.23993C50.0947 6.23993 50.8121 6.41171 51.4487 6.75527C52.0954 7.08872 52.6057 7.57374 52.9795 8.21033C53.3534 8.83682 53.5404 9.58962 53.5404 10.4687C53.5404 10.5597 53.5353 10.6658 53.5252 10.787C53.5151 10.8982 53.505 11.0043 53.4949 11.1053H46.8713V9.72603H52.252L51.3426 10.1353C51.3426 9.71087 51.2567 9.34205 51.0849 9.02881C50.9131 8.71556 50.6757 8.47305 50.3725 8.30127C50.0694 8.11939 49.7157 8.02845 49.3116 8.02845C48.9074 8.02845 48.5487 8.11939 48.2354 8.30127C47.9323 8.47305 47.6948 8.72062 47.523 9.04397C47.3513 9.35721 47.2654 9.73108 47.2654 10.1656V10.5293C47.2654 10.974 47.3614 11.368 47.5534 11.7116C47.7554 12.045 48.0333 12.3027 48.387 12.4846C48.7508 12.6564 49.1751 12.7423 49.6602 12.7423C50.0947 12.7423 50.4736 12.6766 50.7969 12.5452C51.1304 12.4139 51.4335 12.2168 51.7064 11.9541L52.9644 13.3182C52.5905 13.7426 52.1206 14.071 51.5548 14.3034C50.9889 14.5257 50.3372 14.6369 49.5995 14.6369ZM55.2813 14.5156V3.90576H57.7367V14.5156H55.2813ZM65.3928 14.6975C64.5643 14.6975 63.7913 14.5611 63.0738 14.2883C62.3665 14.0154 61.7501 13.6315 61.2247 13.1363C60.7094 12.6412 60.3052 12.0602 60.0121 11.3933C59.7292 10.7264 59.5877 9.99885 59.5877 9.21069C59.5877 8.42253 59.7292 7.695 60.0121 7.02809C60.3052 6.36119 60.7144 5.78017 61.2398 5.28504C61.7653 4.78991 62.3817 4.40594 63.089 4.13311C63.7963 3.86029 64.5643 3.72388 65.3928 3.72388C66.2315 3.72388 66.9995 3.86029 67.6967 4.13311C68.404 4.40594 69.0154 4.78991 69.5307 5.28504C70.0561 5.77006 70.4654 6.34603 70.7584 7.01293C71.0514 7.67984 71.198 8.41243 71.198 9.21069C71.198 9.99885 71.0514 10.7314 70.7584 11.4084C70.4654 12.0754 70.0561 12.6564 69.5307 13.1515C69.0154 13.6365 68.404 14.0154 67.6967 14.2883C66.9995 14.5611 66.2315 14.6975 65.3928 14.6975ZM68.8638 16.9559C68.4495 16.9559 68.0554 16.9104 67.6815 16.8195C67.3178 16.7285 66.954 16.582 66.5902 16.3799C66.2366 16.1778 65.8627 15.905 65.4686 15.5615C65.0847 15.2179 64.6653 14.7935 64.2106 14.2883L66.7873 13.6365C67.0601 14.0104 67.3127 14.3085 67.5451 14.5308C67.7775 14.7531 67.9998 14.9097 68.212 15.0006C68.4343 15.0916 68.6668 15.1371 68.9093 15.1371C69.556 15.1371 70.1319 14.8743 70.6372 14.3489L71.7285 15.6524C71.011 16.5214 70.0561 16.9559 68.8638 16.9559ZM65.3928 12.6058C65.8678 12.6058 66.3023 12.525 66.6963 12.3633C67.1005 12.2017 67.4542 11.9693 67.7573 11.6661C68.0605 11.363 68.2929 11.0043 68.4546 10.59C68.6263 10.1656 68.7122 9.70582 68.7122 9.21069C68.7122 8.70546 68.6263 8.2457 68.4546 7.83141C68.2929 7.41712 68.0605 7.0584 67.7573 6.75527C67.4542 6.45213 67.1005 6.21972 66.6963 6.05805C66.3023 5.89637 65.8678 5.81554 65.3928 5.81554C64.9179 5.81554 64.4784 5.89637 64.0742 6.05805C63.67 6.21972 63.3163 6.45213 63.0132 6.75527C62.7202 7.0584 62.4878 7.41712 62.316 7.83141C62.1543 8.2457 62.0735 8.70546 62.0735 9.21069C62.0735 9.70582 62.1543 10.1656 62.316 10.59C62.4878 11.0043 62.7202 11.363 63.0132 11.6661C63.3163 11.9693 63.67 12.2017 64.0742 12.3633C64.4784 12.525 64.9179 12.6058 65.3928 12.6058Z" fill="#1F2937"/>
<defs>
<clipPath id="clip0_44_777">
<rect width="15.9148" height="18.1883" fill="white" transform="translate(-3.05176e-05 1.51562)"/>
</clipPath>
<clipPath id="clip1_44_777">
<path d="M-3.05176e-05 1.51562H15.9148V19.704H-3.05176e-05V1.51562Z" fill="white"/>
</clipPath>
</defs>
</svg>
