<svg width="284" height="28" viewBox="0 0 284 28" fill="none" xmlns="http://www.w3.org/2000/svg">
<path d="M0 0H284V28H0V0Z" stroke="#E5E7EB"/>
<g clip-path="url(#clip0_31_919)">
<g clip-path="url(#clip1_31_919)">
<path d="M19.5 2C18.75 2 13.5 3.5 13.5 10.25V15.5C13.5 17.1547 14.8453 18.5 16.5 18.5H18V24.5C18 25.3297 18.6703 26 19.5 26C20.3297 26 21 25.3297 21 24.5V18.5V13.25V3.5C21 2.67031 20.3297 2 19.5 2ZM3 2.75C3 2.36563 2.71406 2.04688 2.32969 2.00469C1.94531 1.9625 1.60313 2.21562 1.51875 2.58594L0.0984375 8.975C0.0328125 9.27031 0 9.57031 0 9.87031C0 12.0219 1.64531 13.7891 3.75 13.9813V24.5C3.75 25.3297 4.42031 26 5.25 26C6.07969 26 6.75 25.3297 6.75 24.5V13.9813C8.85469 13.7891 10.5 12.0219 10.5 9.87031C10.5 9.57031 10.4672 9.27031 10.4016 8.975L8.98125 2.58594C8.89688 2.21094 8.54531 1.9625 8.16562 2.00469C7.78594 2.04688 7.5 2.36563 7.5 2.75V9.04062C7.5 9.29375 7.29375 9.5 7.04062 9.5C6.80156 9.5 6.60469 9.31719 6.58125 9.07812L5.99531 2.68438C5.9625 2.29531 5.63906 2 5.25 2C4.86094 2 4.5375 2.29531 4.50469 2.68438L3.92344 9.07812C3.9 9.31719 3.70312 9.5 3.46406 9.5C3.21094 9.5 3.00469 9.29375 3.00469 9.04062V2.75H3ZM5.26406 9.875H5.25H5.23594L5.25 9.84219L5.26406 9.875Z" fill="#F97316"/>
</g>
</g>
<path d="M30.66 19V5H37.5C39.26 5 40.58 5.33333 41.46 6C42.3533 6.66667 42.8 7.54667 42.8 8.64C42.8 9.37333 42.62 10.0133 42.26 10.56C41.9 11.0933 41.4067 11.5067 40.78 11.8C40.1533 12.0933 39.4333 12.24 38.62 12.24L39 11.42C39.88 11.42 40.66 11.5667 41.34 11.86C42.02 12.14 42.5467 12.56 42.92 13.12C43.3067 13.68 43.5 14.3667 43.5 15.18C43.5 16.38 43.0267 17.32 42.08 18C41.1333 18.6667 39.74 19 37.9 19H30.66ZM33.88 16.56H37.66C38.5 16.56 39.1333 16.4267 39.56 16.16C40 15.88 40.22 15.44 40.22 14.84C40.22 14.2533 40 13.82 39.56 13.54C39.1333 13.2467 38.5 13.1 37.66 13.1H33.64V10.74H37.1C37.8867 10.74 38.4867 10.6067 38.9 10.34C39.3267 10.06 39.54 9.64 39.54 9.08C39.54 8.53333 39.3267 8.12667 38.9 7.86C38.4867 7.58 37.8867 7.44 37.1 7.44H33.88V16.56ZM45.733 19V8.24H48.853V19H45.733ZM47.293 6.74C46.7196 6.74 46.253 6.57333 45.893 6.24C45.533 5.90667 45.353 5.49333 45.353 5C45.353 4.50667 45.533 4.09333 45.893 3.76C46.253 3.42667 46.7196 3.26 47.293 3.26C47.8663 3.26 48.333 3.42 48.693 3.74C49.053 4.04667 49.233 4.44667 49.233 4.94C49.233 5.46 49.053 5.89333 48.693 6.24C48.3463 6.57333 47.8796 6.74 47.293 6.74ZM56.1486 19.16C54.8819 19.16 53.8953 18.84 53.1886 18.2C52.4819 17.5467 52.1286 16.58 52.1286 15.3V5.86H55.2486V15.26C55.2486 15.7133 55.3686 16.0667 55.6086 16.32C55.8486 16.56 56.1753 16.68 56.5886 16.68C57.0819 16.68 57.5019 16.5467 57.8486 16.28L58.6886 18.48C58.3686 18.7067 57.9819 18.88 57.5286 19C57.0886 19.1067 56.6286 19.16 56.1486 19.16ZM50.4686 10.88V8.48H57.9286V10.88H50.4686ZM65.448 19.16C64.2213 19.16 63.1413 18.92 62.208 18.44C61.288 17.96 60.5746 17.3067 60.068 16.48C59.5613 15.64 59.308 14.6867 59.308 13.62C59.308 12.54 59.5546 11.5867 60.048 10.76C60.5546 9.92 61.2413 9.26667 62.108 8.8C62.9746 8.32 63.9546 8.08 65.048 8.08C66.1013 8.08 67.048 8.30667 67.888 8.76C68.7413 9.2 69.4146 9.84 69.908 10.68C70.4013 11.5067 70.648 12.5 70.648 13.66C70.648 13.78 70.6413 13.92 70.628 14.08C70.6146 14.2267 70.6013 14.3667 70.588 14.5H61.848V12.68H68.948L67.748 13.22C67.748 12.66 67.6346 12.1733 67.408 11.76C67.1813 11.3467 66.868 11.0267 66.468 10.8C66.068 10.56 65.6013 10.44 65.068 10.44C64.5346 10.44 64.0613 10.56 63.648 10.8C63.248 11.0267 62.9346 11.3533 62.708 11.78C62.4813 12.1933 62.368 12.6867 62.368 13.26V13.74C62.368 14.3267 62.4946 14.8467 62.748 15.3C63.0146 15.74 63.3813 16.08 63.848 16.32C64.328 16.5467 64.888 16.66 65.528 16.66C66.1013 16.66 66.6013 16.5733 67.028 16.4C67.468 16.2267 67.868 15.9667 68.228 15.62L69.888 17.42C69.3946 17.98 68.7746 18.4133 68.028 18.72C67.2813 19.0133 66.4213 19.16 65.448 19.16ZM72.9452 19V5H76.1852V19H72.9452ZM86.2877 19.24C85.1943 19.24 84.1743 19.06 83.2277 18.7C82.2943 18.34 81.481 17.8333 80.7877 17.18C80.1077 16.5267 79.5743 15.76 79.1877 14.88C78.8143 14 78.6277 13.04 78.6277 12C78.6277 10.96 78.8143 10 79.1877 9.12C79.5743 8.24 80.1143 7.47333 80.8077 6.82C81.501 6.16667 82.3143 5.66 83.2477 5.3C84.181 4.94 85.1943 4.76 86.2877 4.76C87.3943 4.76 88.4077 4.94 89.3277 5.3C90.261 5.66 91.0677 6.16667 91.7477 6.82C92.441 7.46 92.981 8.22 93.3677 9.1C93.7543 9.98 93.9477 10.9467 93.9477 12C93.9477 13.04 93.7543 14.0067 93.3677 14.9C92.981 15.78 92.441 16.5467 91.7477 17.2C91.0677 17.84 90.261 18.34 89.3277 18.7C88.4077 19.06 87.3943 19.24 86.2877 19.24ZM90.8677 22.22C90.321 22.22 89.801 22.16 89.3077 22.04C88.8277 21.92 88.3477 21.7267 87.8677 21.46C87.401 21.1933 86.9077 20.8333 86.3877 20.38C85.881 19.9267 85.3277 19.3667 84.7277 18.7L88.1277 17.84C88.4877 18.3333 88.821 18.7267 89.1277 19.02C89.4343 19.3133 89.7277 19.52 90.0077 19.64C90.301 19.76 90.6077 19.82 90.9277 19.82C91.781 19.82 92.541 19.4733 93.2077 18.78L94.6477 20.5C93.701 21.6467 92.441 22.22 90.8677 22.22ZM86.2877 16.48C86.9143 16.48 87.4877 16.3733 88.0077 16.16C88.541 15.9467 89.0077 15.64 89.4077 15.24C89.8077 14.84 90.1143 14.3667 90.3277 13.82C90.5543 13.26 90.6677 12.6533 90.6677 12C90.6677 11.3333 90.5543 10.7267 90.3277 10.18C90.1143 9.63333 89.8077 9.16 89.4077 8.76C89.0077 8.36 88.541 8.05333 88.0077 7.84C87.4877 7.62667 86.9143 7.52 86.2877 7.52C85.661 7.52 85.081 7.62667 84.5477 7.84C84.0143 8.05333 83.5477 8.36 83.1477 8.76C82.761 9.16 82.4543 9.63333 82.2277 10.18C82.0143 10.7267 81.9077 11.3333 81.9077 12C81.9077 12.6533 82.0143 13.26 82.2277 13.82C82.4543 14.3667 82.761 14.84 83.1477 15.24C83.5477 15.64 84.0143 15.9467 84.5477 16.16C85.081 16.3733 85.661 16.48 86.2877 16.48Z" fill="white"/>
<defs>
<clipPath id="clip0_31_919">
<rect width="21" height="24" fill="white" transform="translate(0 2)"/>
</clipPath>
<clipPath id="clip1_31_919">
<path d="M0 2H21V26H0V2Z" fill="white"/>
</clipPath>
</defs>
</svg>
